<!-- Generated by IcoMoon.io -->
<svg version="1.1" xmlns="http://www.w3.org/2000/svg" width="64" height="32" viewBox="0 0 64 32">
<title>Logo</title>
<path fill="#afb1b8" d="M22.943 4.279l4.231 4.005-7.854-0.005v19.434h20.528v-7.43l4.226 4.001v-20.005h-21.132zM39.663 19.813l-11.997-11.357h11.997v11.357zM35.938 24.871h-13.369v-13.070h0.945v12.185h12.424v0.885zM25.726 30.301h0.413l-0.719 1.356v0.79h-0.374v-0.79l-0.721-1.356h0.414l0.494 1.017 0.494-1.017zM26.347 32.447l0.174-0.5h0.831l0.175 0.5h0.389l-0.812-2.146h-0.335l-0.811 2.146h0.388zM26.936 30.757l0.311 0.89h-0.622l0.311-0.89zM28.903 31.595c0.054-0.084 0.161-0.182 0.32-0.296-0.084-0.105-0.142-0.195-0.175-0.268s-0.049-0.145-0.049-0.214c0-0.168 0.051-0.301 0.153-0.398 0.102-0.098 0.24-0.147 0.413-0.147 0.156 0 0.284 0.046 0.383 0.139 0.1 0.091 0.15 0.205 0.15 0.34 0 0.089-0.023 0.172-0.068 0.248s-0.119 0.149-0.223 0.224l-0.146 0.106 0.414 0.489c0.060-0.118 0.090-0.249 0.090-0.394h0.311c0 0.264-0.062 0.481-0.186 0.65l0.315 0.373h-0.416l-0.121-0.143c-0.153 0.115-0.336 0.172-0.548 0.172s-0.382-0.056-0.51-0.168c-0.127-0.113-0.19-0.26-0.19-0.441 0-0.099 0.027-0.19 0.081-0.273zM29.871 32.070l-0.469-0.553-0.046 0.032c-0.118 0.089-0.177 0.192-0.177 0.307 0 0.099 0.032 0.18 0.096 0.242s0.149 0.093 0.256 0.093c0.121 0 0.234-0.040 0.339-0.121zM29.486 31.119l0.164-0.112 0.046-0.037c0.061-0.054 0.091-0.123 0.091-0.208 0-0.056-0.021-0.104-0.063-0.143s-0.096-0.060-0.161-0.060c-0.070 0-0.125 0.024-0.167 0.071s-0.062 0.107-0.062 0.178c0 0.083 0.051 0.186 0.152 0.311zM32.98 32.285c-0.147 0.128-0.343 0.192-0.588 0.192-0.171 0-0.322-0.040-0.453-0.121-0.13-0.082-0.23-0.197-0.301-0.346s-0.108-0.323-0.111-0.52v-0.201c0-0.202 0.036-0.381 0.108-0.535s0.174-0.273 0.308-0.357c0.135-0.084 0.29-0.125 0.466-0.125 0.237 0 0.427 0.064 0.572 0.193s0.228 0.311 0.252 0.545h-0.371c-0.018-0.154-0.063-0.265-0.136-0.333-0.072-0.069-0.177-0.103-0.317-0.103-0.162 0-0.287 0.059-0.374 0.178-0.086 0.118-0.131 0.291-0.133 0.52v0.19c0 0.232 0.041 0.409 0.124 0.531s0.205 0.183 0.366 0.183c0.146 0 0.256-0.033 0.33-0.099s0.12-0.175 0.14-0.329h0.371c-0.022 0.229-0.106 0.408-0.254 0.536zM35.172 31.984c-0.073 0.158-0.177 0.28-0.313 0.366-0.135 0.084-0.29 0.127-0.466 0.127-0.174 0-0.329-0.042-0.466-0.127-0.136-0.086-0.241-0.207-0.315-0.364s-0.111-0.339-0.112-0.544v-0.121c0-0.209 0.037-0.394 0.111-0.554s0.179-0.283 0.314-0.367c0.136-0.085 0.291-0.128 0.466-0.128s0.33 0.042 0.464 0.127c0.136 0.084 0.24 0.204 0.314 0.363s0.111 0.341 0.112 0.55v0.119c0 0.21-0.036 0.395-0.109 0.554zM34.772 30.771c-0.089-0.127-0.217-0.19-0.382-0.19-0.161 0-0.287 0.063-0.379 0.19-0.090 0.126-0.137 0.304-0.139 0.535v0.124c0 0.236 0.046 0.418 0.137 0.547s0.22 0.193 0.383 0.193c0.165 0 0.292-0.063 0.38-0.189 0.089-0.126 0.134-0.31 0.134-0.551v-0.112c0-0.238-0.045-0.42-0.136-0.547z"></path>
</svg>
